# xmcd
#
# Track frame offsets:
#	150
#	14671
#	28382
#	41788
#	54930
#	67931
#	81800
#	97986
#	113652
#	128112
#	142445
#	156929
#	170377
#	183007
#	197736
#	210557
#	223231
#	236265
#	249085
#	263480
#	276074
#	287805
#	301202
#
# Disc length: 4173 seconds
#
# Revision: 2
# Processed by: cddbd v1.5.1PL0 Copyright (c) Steve Scherf et al.
# Submitted via: audiograbber 1.83.01
#
DISCID=46104b17
DTITLE=Female Blues Singers - Complete Recorded Works  - 1996 - Vol 2: B (1920-
DTITLE=1928) DOCD-5506
DYEAR=1996
DGENRE=Blues
TTITLE0=Down Home Gal
TTITLE1=Don't Blame Me
TTITLE2=Put It Here Or Keep It Out There
TTITLE3=That's Why The Undertaker's Busy
TTITLE4=South Bound Blues
TTITLE5=Cockroach Blues
TTITLE6=Don't Take Away Those Blues (Take 1)
TTITLE7=Don't Take Away Those Blues (Take 4)
TTITLE8=Whistle And I'll Come To Meet You
TTITLE9=Wath'cha Gon'na Do When There Ain't No Jazz
TTITLE10=Sweet Mama, Papa's Getting Mad
TTITLE11=I've Got The Blues For My Kentucky Home
TTITLE12=I'd Love To Fall Asleep And Wake Up In Mommy's Arms
TTITLE13=Chattanooga Blues
TTITLE14=Selma 'Bama Blues
TTITLE15=Waco Texas Blues
TTITLE16=Loafing Blues
TTITLE17=Awful Lawdy Lawdy Blues
TTITLE18=How Come You Do Me Like You Do?
TTITLE19=You Had It And You Didn't Want It
TTITLE20=Moanful Mama
TTITLE21=Save My Jelly
TTITLE22=Three Card Monte Blues
EXTD=Document Records DOCD-5506
EXTT0=
EXTT1=
EXTT2=
EXTT3=
EXTT4=
EXTT5=
EXTT6=
EXTT7=
EXTT8=
EXTT9=
EXTT10=
EXTT11=
EXTT12=
EXTT13=
EXTT14=
EXTT15=
EXTT16=
EXTT17=
EXTT18=
EXTT19=
EXTT20=
EXTT21=
EXTT22=
PLAYORDER=
